<?xml version="1.0" encoding="UTF-8"?>
<svg width="16px" height="16px" viewBox="0 0 16 16" version="1.1" xmlns="http://www.w3.org/2000/svg" xmlns:xlink="http://www.w3.org/1999/xlink">
    <!-- Generator: Sketch 52.6 (67491) - http://www.bohemiancoding.com/sketch -->
    <title>icons/16px/firm</title>
    <desc>Created with Sketch.</desc>
    <defs>
        <path d="M14,14 L10,14 L10,12 L12,12 L12,10 L10,10 L10,8 L12,8 L12,6 L10,6 L10,4 L14,4 L14,14 Z M6,4 L8,4 L8,2 L6,2 L6,4 Z M6,8 L8,8 L8,6 L6,6 L6,8 Z M6,12 L8,12 L8,10 L6,10 L6,12 Z M2,4 L4,4 L4,2 L2,2 L2,4 Z M2,8 L4,8 L4,6 L2,6 L2,8 Z M2,12 L4,12 L4,10 L2,10 L2,12 Z M4,16 L6,16 L6,14 L4,14 L4,16 Z M10,2 L10,1.11022302e-16 L0,0 L0,16 L16,16 L16,2 L10,2 Z" id="path-1"></path>
    </defs>
    <g id="icons/16px/firm" stroke="none" stroke-width="1" fill="none" fill-rule="evenodd">
        <g id="color/primary/normal">
            <mask id="mask-2" fill="white">
                <use xlink:href="#path-1"></use>
            </mask>
            <use id="Mask" fill="#000000" xlink:href="#path-1"></use>
            <g mask="url(#mask-2)" fill="#00ACE8" fill-rule="nonzero" id="Rectangle">
                <rect x="0" y="0" width="16" height="16"></rect>
            </g>
        </g>
    </g>
</svg>