<?xml version="1.0" encoding="utf-8"?>
<!-- Generator: Adobe Illustrator 23.0.1, SVG Export Plug-In . SVG Version: 6.00 Build 0)  -->
<svg version="1.1" id="Layer_1" xmlns="http://www.w3.org/2000/svg" xmlns:xlink="http://www.w3.org/1999/xlink" x="0px" y="0px"
	 viewBox="0 0 15 15" style="enable-background:new 0 0 15 15;" xml:space="preserve">
<style type="text/css">
	.st0{filter:url(#Adobe_OpacityMaskFilter);}
	.st1{fill-rule:evenodd;clip-rule:evenodd;fill:#FFFFFF;}
	.st2{mask:url(#mask-2_1_);fill-rule:evenodd;clip-rule:evenodd;fill:#00ACE8;}
</style>
<title>input/checkbox/on</title>
<desc>Created with Sketch.</desc>
<g>
	<g id="Group-3" transform="translate(3.000000, 4.000000)">
		<g id="Clip-2">
		</g>
		<defs>
			<filter id="Adobe_OpacityMaskFilter" filterUnits="userSpaceOnUse" x="0" y="0" width="9" height="7">
				<feColorMatrix  type="matrix" values="1 0 0 0 0  0 1 0 0 0  0 0 1 0 0  0 0 0 1 0"/>
			</filter>
		</defs>
		<mask maskUnits="userSpaceOnUse" x="0" y="0" width="9" height="7" id="mask-2_1_">
			<g class="st0">
				<polygon id="path-1_1_" class="st1" points="0,0 9,0 9,7 0,7 				"/>
			</g>
		</mask>
		<path id="Fill-1" class="st2" d="M0.1,3.8C0,3.8,0,3.7,0,3.6s0-0.2,0.1-0.2l0.5-0.5c0.1-0.1,0.3-0.1,0.5,0l0,0L3,5
			C3.1,5,3.2,5,3.3,5l4.6-4.9h0C8.1,0,8.3,0,8.4,0.1l0.5,0.5C9,0.7,9,0.9,8.9,1.1L3.4,6.9C3.3,7,3.2,7,3.1,7S2.9,7,2.9,6.9L0.2,4
			L0.1,3.8z"/>
	</g>
</g>
</svg>
