<?xml version="1.0" encoding="UTF-8"?>
<svg width="64px" height="64px" viewBox="0 0 64 64" version="1.1" xmlns="http://www.w3.org/2000/svg" xmlns:xlink="http://www.w3.org/1999/xlink">
    <!-- Generator: sketchtool 53.1 (72631) - https://sketchapp.com -->
    <title>0F491F06-518F-4488-93BD-C748BC36C3DE</title>
    <desc>Created with sketchtool.</desc>
    <g id="Page-1" stroke="none" stroke-width="1" fill="none" fill-rule="evenodd">
        <g id="Desktop-1080p" transform="translate(-528.000000, -2452.000000)" fill="#EC1D24">
            <path d="M570.764011,2492.01774 C571.446505,2492.01774 571.999965,2492.57406 571.999965,2493.26035 L571.999965,2501.83431 C571.999965,2506.63052 568.118822,2510.53254 563.348287,2510.53254 L551.238903,2510.53254 L551.235937,2514.75827 C551.235566,2515.26065 550.934364,2515.71346 550.472488,2515.90556 C550.319848,2515.96906 550.159297,2516 550.00023,2516 C549.678511,2516 549.362477,2515.87375 549.126039,2515.63604 L544.049852,2510.53254 L536.651679,2510.53254 C531.881143,2510.53254 528,2506.63052 528,2501.83431 L528,2482.69821 C528,2477.90201 531.881143,2473.99998 536.651679,2473.99998 L549.134815,2473.99998 C549.817309,2473.99998 550.370769,2474.5563 550.370769,2475.24259 C550.370769,2475.92888 549.817309,2476.48519 549.134815,2476.48519 L536.651679,2476.48519 C533.244153,2476.48519 530.471908,2479.27235 530.471908,2482.69821 L530.471908,2501.83431 C530.471908,2505.26017 533.244153,2508.04733 536.651679,2508.04733 L544.682785,2508.04733 C545.18829,2508.04733 545.625323,2508.35314 545.816278,2508.79389 L548.766253,2511.75961 L548.767984,2509.28907 C548.768478,2508.60315 549.321567,2508.04733 550.003938,2508.04733 L563.348287,2508.04733 C566.755812,2508.04733 569.528057,2505.26017 569.528057,2501.83431 L569.528057,2493.26035 C569.528057,2492.57406 570.081517,2492.01774 570.764011,2492.01774 Z M583.137096,2482.78575 C587.160637,2479.78409 589.468356,2475.20538 589.468356,2470.22382 C589.468356,2461.55789 582.350767,2454.50765 573.601913,2454.50765 L570.398118,2454.50765 C561.649391,2454.50765 554.531675,2461.55789 554.531675,2470.22382 C554.531675,2478.88974 561.649138,2485.93999 570.398118,2485.93999 L573.601913,2485.93999 C575.191785,2485.93999 576.762037,2485.70753 578.268745,2485.24888 C578.391023,2485.21164 578.516213,2485.19346 578.64039,2485.19346 C578.971023,2485.19346 579.294314,2485.32198 579.535326,2485.56046 L582.632919,2488.62706 L582.632919,2483.7873 C582.632919,2483.39347 582.819628,2483.02259 583.137096,2482.78575 Z M573.601913,2452 C583.746462,2452 592,2460.17518 592,2470.22382 C592,2473.13469 591.327469,2475.9168 590.000761,2478.49291 C588.832534,2480.76107 587.168232,2482.79139 585.164562,2484.39866 L585.164562,2491.65278 C585.164562,2492.15983 584.856208,2492.61697 584.383297,2492.81106 C584.226588,2492.87539 584.062158,2492.90661 583.898994,2492.90661 C583.569627,2492.90661 583.245956,2492.77922 583.003805,2492.53961 L578.271403,2487.85458 C576.752417,2488.24815 575.185203,2488.44751 573.601787,2488.44751 L570.397992,2488.44751 C560.253443,2488.44751 552.000032,2480.27246 552.000032,2470.22382 C552.000032,2460.17518 560.253443,2452 570.398118,2452 L573.601913,2452 Z M577.986422,2465.72113 C578.17284,2468.21871 576.416613,2470.43043 573.798966,2471.01437 L573.798966,2473.80044 C573.799096,2474.46295 573.217498,2474.99998 572.500016,2474.99998 C571.782664,2474.99998 571.200935,2474.46295 571.200935,2473.80044 L571.200935,2470.91853 C571.200935,2469.84409 571.997142,2468.92908 573.137604,2468.69349 C574.545028,2468.40272 575.494136,2467.22213 575.394497,2465.88619 C575.295767,2464.56345 574.140884,2463.49717 572.708388,2463.40601 C571.891267,2463.35395 571.114676,2463.60741 570.520347,2464.1195 C569.925758,2464.63207 569.59813,2465.32792 569.59813,2466.07872 C569.59813,2466.74123 569.016402,2467.27826 568.29905,2467.27826 C567.581697,2467.27826 566.999969,2466.74123 566.999969,2466.07872 C566.999969,2464.67633 567.636908,2463.323 568.747622,2462.36564 C569.873795,2461.39485 571.345133,2460.91467 572.886882,2461.01243 C575.606637,2461.18553 577.798965,2463.20988 577.986422,2465.72113 Z M572.706965,2478.29299 C572.892764,2478.47899 572.999964,2478.73699 572.999964,2478.99999 C572.999964,2479.26399 572.892964,2479.52099 572.706965,2479.70799 C572.520965,2479.89399 572.262965,2479.99999 571.999965,2479.99999 C571.736965,2479.99999 571.478966,2479.89399 571.292966,2479.70799 C571.107066,2479.52199 570.999966,2479.26399 570.999966,2478.99999 C570.999966,2478.73699 571.106966,2478.47899 571.292966,2478.29299 C571.478966,2478.10699 571.736965,2477.99999 571.999965,2477.99999 C572.262965,2477.99999 572.520965,2478.10699 572.706965,2478.29299 Z M555.986439,2487.7211 C556.172857,2490.21866 554.416631,2492.43036 551.798984,2493.01429 L551.798984,2495.80046 C551.799113,2496.46284 551.217515,2496.99999 550.500033,2496.99999 C549.782681,2496.99999 549.200953,2496.46284 549.200953,2495.80046 L549.200953,2492.91845 C549.200953,2491.84403 549.997289,2490.92902 551.137622,2490.69343 C552.545045,2490.40266 553.494284,2489.22208 553.394514,2487.88616 C553.295784,2486.56343 552.141031,2485.49716 550.708406,2485.406 C549.891284,2485.35394 549.114694,2485.6074 548.520494,2486.11948 C547.925775,2486.63204 547.598147,2487.32789 547.598147,2488.07868 C547.598147,2488.74119 547.016419,2489.27822 546.299067,2489.27822 C545.581715,2489.27822 544.999987,2488.74119 544.999987,2488.07868 C544.999987,2486.67631 545.636926,2485.32299 546.747639,2484.36564 C547.873812,2483.39486 549.345151,2482.91468 550.886899,2483.01244 C553.606654,2483.18554 555.798982,2485.20987 555.986439,2487.7211 Z M551.706981,2500.29299 C551.892881,2500.47899 551.999981,2500.73699 551.999981,2500.99999 C551.999981,2501.26399 551.892981,2501.52099 551.706981,2501.70799 C551.520981,2501.89399 551.262982,2501.99999 550.999982,2501.99999 C550.736982,2501.99999 550.478982,2501.89399 550.292982,2501.70799 C550.107083,2501.52199 549.999983,2501.26399 549.999983,2500.99999 C549.999983,2500.73699 550.106983,2500.47899 550.292982,2500.29299 C550.478982,2500.10709 550.736982,2499.99999 550.999982,2499.99999 C551.262982,2499.99999 551.520981,2500.10709 551.706981,2500.29299 Z" id="Combined-Shape"></path>
        </g>
    </g>
</svg>