<?xml version="1.0" encoding="UTF-8"?>
<svg width="64px" height="63px" viewBox="0 0 64 63" version="1.1" xmlns="http://www.w3.org/2000/svg" xmlns:xlink="http://www.w3.org/1999/xlink">
    <!-- Generator: sketchtool 53.1 (72631) - https://sketchapp.com -->
    <title>2C549BBC-BF70-43FA-B962-F929ED8F4214</title>
    <desc>Created with sketchtool.</desc>
    <g id="Page-1" stroke="none" stroke-width="1" fill="none" fill-rule="evenodd">
        <g id="Desktop-1080p" transform="translate(-925.000000, -2104.000000)" fill="#EC1D24">
            <path d="M954.707253,2146.70756 C954.316532,2147.09748 953.683565,2147.09748 953.292454,2146.70756 C952.902515,2146.31647 952.902515,2145.68353 953.292454,2145.29244 C953.683565,2144.90252 954.316532,2144.90252 954.707253,2145.29244 C955.097582,2145.68353 955.097582,2146.31647 954.707253,2146.70756 Z M948,2117.49976 C948,2110.056 954.280406,2104 962,2104 C969.719594,2104 976,2110.056 976,2117.49976 C976,2124.94352 969.719594,2131 962,2131 C954.280406,2131 948,2124.94352 948,2117.49976 Z M973.454817,2117.49976 C973.454817,2111.40971 968.316212,2106.45472 962,2106.45472 C955.683788,2106.45472 950.545183,2111.40971 950.545183,2117.49976 C950.545183,2123.59029 955.683788,2128.54528 962,2128.54528 C968.316212,2128.54528 973.454817,2123.59029 973.454817,2117.49976 Z M939.398415,2166.63501 L925.362785,2152.67043 C924.878259,2152.18815 924.879236,2151.41022 925.364739,2150.92938 L931.311419,2145.0402 C932.213067,2144.1499 933.466388,2143.79494 934.654747,2144.01727 C937.475452,2138.87032 942.731487,2136.12515 948.750944,2136.12515 C950.92252,2136.12515 953.027181,2136.53992 955.01071,2137.35932 L968.950119,2137.35932 C970.484777,2137.35932 971.905142,2138.0649 972.836585,2139.19683 L980.212911,2131.71079 C981.997159,2129.66783 985.13388,2129.41753 987.227796,2131.16003 C989.334898,2132.91892 989.601095,2136.04027 987.821731,2138.11892 C975.824823,2152.27689 976.571638,2151.40829 976.484697,2151.49173 C974.372221,2153.52167 971.585707,2154.63961 968.637521,2154.63961 L952.019542,2154.63961 C951.042674,2154.63961 950.118558,2155.00855 949.416679,2155.67797 L948.113049,2156.91937 C948.565827,2158.22781 948.252741,2159.73302 947.223123,2160.74968 L941.162638,2166.64514 C940.671762,2167.1226 939.882942,2167.11729 939.398415,2166.63501 Z M948.750455,2138.59349 C943.408456,2138.59349 939.113658,2141.00492 936.824858,2145.24469 L946.617954,2154.91403 L947.680297,2153.90171 C948.849607,2152.78618 950.391104,2152.17127 952.019542,2152.17127 L968.637521,2152.17127 C970.909714,2152.17127 973.059311,2151.31714 974.696541,2149.76515 L985.908536,2136.53027 C986.801881,2135.48612 986.668539,2133.92545 985.615476,2133.04624 C984.56339,2132.17041 982.981842,2132.30208 982.090939,2133.34044 C982.047956,2133.39108 981.041783,2134.4087 973.906255,2141.65118 C973.934584,2141.86435 973.950214,2142.07945 973.950214,2142.29648 C973.950214,2145.01898 971.707327,2147.23363 968.950119,2147.23363 L958.751135,2147.23363 C958.060978,2147.23363 957.501233,2146.68141 957.501233,2145.99946 C957.501233,2145.31799 958.060978,2144.7653 958.751135,2144.7653 L968.950119,2144.7653 C970.328967,2144.7653 971.450411,2143.65797 971.450411,2142.29648 C971.450411,2140.91955 970.305522,2139.82814 968.950119,2139.82814 L954.75477,2139.82814 C954.582353,2139.82814 954.41189,2139.79293 954.253637,2139.72445 C952.516279,2138.97401 950.665115,2138.59349 948.750455,2138.59349 Z M933.080526,2146.78462 L928.013026,2151.8028 L940.295668,2164.02343 L945.46232,2158.99754 C945.928285,2158.53744 945.955149,2157.75131 945.455481,2157.25793 C934.22346,2146.18273 934.844748,2146.74122 934.628372,2146.611 C934.125774,2146.30427 933.492764,2146.37758 933.080526,2146.78462 Z M960.382676,2110.21462 C960.382676,2109.54373 960.899571,2109 961.536894,2109 C962.174218,2109 962.691112,2109.54373 962.691112,2110.21462 L962.691112,2111.629 C963.218832,2111.81309 963.805188,2112.15043 964.391092,2112.74683 C964.848901,2113.21323 964.861079,2113.98186 964.417704,2114.46391 C963.974329,2114.94549 963.24364,2114.9583 962.78538,2114.49191 C962.377638,2114.07675 961.94599,2113.85708 961.536894,2113.85708 C960.900473,2113.85708 960.382676,2114.40223 960.382676,2115.0717 C960.382676,2115.74117 960.900473,2116.28585 961.536894,2116.28585 C963.446609,2116.28585 965,2117.9199 965,2119.92877 C965,2121.51158 964.034769,2122.86143 962.691112,2123.36294 L962.691112,2124.78585 C962.691112,2125.45674 962.174218,2126 961.536894,2126 C960.899571,2126 960.382676,2125.45674 960.382676,2124.78585 L960.382676,2123.36863 C959.613648,2123.09724 958.887921,2122.5592 958.270894,2121.78725 C957.860445,2121.27388 957.923591,2120.50809 958.41162,2120.07633 C958.899648,2119.64505 959.627631,2119.711 960.038079,2120.22437 C960.511223,2120.81697 961.043905,2121.14292 961.536894,2121.14292 C962.173316,2121.14292 962.691112,2120.59824 962.691112,2119.92877 C962.691112,2119.25931 962.173316,2118.71462 961.536894,2118.71462 C959.62718,2118.71462 958.073789,2117.0801 958.073789,2115.0717 C958.073789,2113.48842 959.03902,2112.13857 960.382676,2111.63754 L960.382676,2110.21462 Z" id="Combined-Shape"></path>
        </g>
    </g>
</svg>