<?xml version="1.0" encoding="UTF-8"?>
<svg width="42px" height="58px" viewBox="0 0 42 58" version="1.1" xmlns="http://www.w3.org/2000/svg" xmlns:xlink="http://www.w3.org/1999/xlink">
    <!-- Generator: sketchtool 53.1 (72631) - https://sketchapp.com -->
    <title>35E40B6D-7BDE-4E1A-A6C1-0E0A27B1C67D</title>
    <desc>Created with sketchtool.</desc>
    <g id="Page-1" stroke="none" stroke-width="1" fill="none" fill-rule="evenodd">
        <g id="Desktop-1080p" transform="translate(-1339.000000, -2107.000000)" fill="#EC1D24">
            <g id="file-(2)" transform="translate(1339.000000, 2107.000000)">
                <path d="M41.7203182,4.1499 L37.9021364,0.283233333 C37.7231591,0.101983333 37.4804659,0 37.2272727,0 L0.954545455,0 C0.427397727,0 0,0.432825 0,0.966666667 L0,53.1666667 C0,53.423075 0.100704545,53.66885 0.279681818,53.8501 L4.09786364,57.7167667 C4.27684091,57.8980167 4.51953409,58 4.77272727,58 L41.0454545,58 C41.5726023,58 42,57.567175 42,57.0333333 L42,4.83333333 C42,4.576925 41.8992955,4.33115 41.7203182,4.1499 Z M29.5909091,3.3002 L38.7411818,12.5666667 L29.5909091,12.5666667 L29.5909091,3.3002 Z M40.0909091,56.0666667 L5.16790909,56.0666667 L1.90909091,52.7664667 L1.90909091,1.93333333 L27.6818182,1.93333333 L27.6818182,13.5333333 C27.6818182,14.067175 28.1092159,14.5 28.6363636,14.5 L40.0909091,14.5 L40.0909091,56.0666667 Z M40.0909091,11.1998 L30.9406364,1.93333333 L36.8320909,1.93333333 L40.0909091,5.23353333 L40.0909091,11.1998 Z" id="Shape" fill-rule="nonzero"></path>
                <path d="M34.0357143,16 L8.96428571,16 C8.43175893,16 8,16.44775 8,17 C8,17.55225 8.43175893,18 8.96428571,18 L34.0357143,18 C34.5682411,18 35,17.55225 35,17 C35,16.44775 34.5682411,16 34.0357143,16 Z" id="Path"></path>
                <path d="M34.0357143,22 L8.96428571,22 C8.43175893,22 8,22.44775 8,23 C8,23.55225 8.43175893,24 8.96428571,24 L34.0357143,24 C34.5682411,24 35,23.55225 35,23 C35,22.44775 34.5682411,22 34.0357143,22 Z" id="Path"></path>
                <path d="M34.0357143,28 L8.96428571,28 C8.43175893,28 8,28.44775 8,29 C8,29.55225 8.43175893,30 8.96428571,30 L34.0357143,30 C34.5682411,30 35,29.55225 35,29 C35,28.44775 34.5682411,28 34.0357143,28 Z" id="Path"></path>
                <path d="M34.0357143,34 L8.96428571,34 C8.43175893,34 8,34.44775 8,35 C8,35.55225 8.43175893,36 8.96428571,36 L34.0357143,36 C34.5682411,36 35,35.55225 35,35 C35,34.44775 34.5682411,34 34.0357143,34 Z" id="Path"></path>
                <path d="M34.0357143,40 L8.96428571,40 C8.43175893,40 8,40.44775 8,41 C8,41.55225 8.43175893,42 8.96428571,42 L34.0357143,42 C34.5682411,42 35,41.55225 35,41 C35,40.44775 34.5682411,40 34.0357143,40 Z" id="Path"></path>
                <path d="M34.0357143,45 L8.96428571,45 C8.43175893,45 8,45.44775 8,46 C8,46.55225 8.43175893,47 8.96428571,47 L34.0357143,47 C34.5682411,47 35,46.55225 35,46 C35,45.44775 34.5682411,45 34.0357143,45 Z" id="Path"></path>
                <path d="M21,7 C18.790875,7 17,8.790875 17,11 C17,13.209125 18.790875,15 21,15 C23.209125,15 25,13.209125 25,11 C25,8.790875 23.209125,7 21,7 Z M21,13 C19.895375,13 19,12.104625 19,11 C19,9.895375 19.895375,9 21,9 C22.104625,9 23,9.895375 23,11 C23,12.104625 22.104625,13 21,13 Z" id="Shape" fill-rule="nonzero"></path>
            </g>
        </g>
    </g>
</svg>