<?xml version="1.0" encoding="UTF-8"?>
<svg width="48px" height="64px" viewBox="0 0 48 64" version="1.1" xmlns="http://www.w3.org/2000/svg" xmlns:xlink="http://www.w3.org/1999/xlink">
    <!-- Generator: sketchtool 53.1 (72631) - https://sketchapp.com -->
    <title>10C4BEE6-7E87-4221-A3BC-AAA0A8EB3D46</title>
    <desc>Created with sketchtool.</desc>
    <g id="Page-1" stroke="none" stroke-width="1" fill="none" fill-rule="evenodd">
        <g id="Desktop-1080p" transform="translate(-939.000000, -2452.000000)" fill="#EC1D24">
            <path d="M971.445693,2459.97764 C971.943275,2460.23047 972.142608,2460.84123 971.891379,2461.34174 C971.640024,2461.84225 971.033022,2462.04336 970.535815,2461.79014 C964.272709,2458.60523 956.728571,2459.82322 951.762755,2464.82101 C945.991479,2470.62916 945.413113,2479.88928 950.41757,2486.36079 C950.759713,2486.80341 950.68068,2487.44135 950.240872,2487.7858 C950.05667,2487.93015 949.838454,2488 949.621864,2488 C949.321239,2488 949.023865,2487.86534 948.824908,2487.6081 C943.196566,2480.32963 943.846086,2469.91597 950.335661,2463.38505 C955.919359,2457.76556 964.403014,2456.39617 971.445693,2459.97764 Z M979.090226,2468.55438 C982.54989,2475.59736 981.225538,2484.08051 975.794676,2489.66357 C972.357032,2493.19764 967.806476,2495 963.238644,2495 C959.417296,2495 955.583782,2493.73881 952.378867,2491.17465 C951.951001,2490.83234 951.873993,2490.19837 952.206966,2489.7585 C952.53994,2489.31876 953.156494,2489.23972 953.584482,2489.5819 C959.840295,2494.58677 968.791649,2494.00846 974.406334,2488.23654 C979.236213,2483.27132 980.414212,2475.72719 977.337644,2469.46425 C977.093236,2468.9666 977.287522,2468.35977 977.771349,2468.10851 C978.255541,2467.85737 978.845696,2468.05698 979.090226,2468.55438 Z M976.71422,2464.1054 C977.13109,2464.5771 977.086733,2465.29745 976.614912,2465.71421 C976.398072,2465.90577 976.128823,2466 975.860563,2466 C975.545121,2466 975.231233,2465.86989 975.006059,2465.61503 C974.754468,2465.33037 974.490022,2465.04938 974.220491,2464.77955 C973.950677,2464.50986 973.669563,2464.2454 973.384916,2463.99393 C972.913236,2463.57704 972.86888,2462.85669 973.286031,2462.38512 C973.702618,2461.91341 974.423063,2461.86877 974.894743,2462.28581 C975.214282,2462.56821 975.529724,2462.86488 975.832452,2463.16763 C976.13518,2463.47023 976.431834,2463.78584 976.71422,2464.1054 Z M986.501116,2478.05131 L985.188235,2480.22769 C985.015377,2480.51419 984.948607,2480.85469 985.000168,2481.18632 L985.391386,2483.70019 C985.590581,2484.98082 985.070276,2486.24982 984.033374,2487.0122 L981.998766,2488.5082 C981.729835,2488.70583 981.538677,2488.9947 981.460408,2489.32145 L980.867893,2491.79646 C980.566937,2493.05346 979.607438,2494.02334 978.36417,2494.32734 L977.380312,2494.56796 L984.302429,2510.17837 C984.449569,2510.50999 984.408642,2510.89574 984.195722,2511.18849 C983.982802,2511.48124 983.630533,2511.63524 983.273688,2511.59237 L977.706863,2510.91949 L974.499961,2515.56837 C974.312389,2515.84025 974.005992,2516 973.681914,2516 C973.650879,2516 973.619596,2515.9985 973.588313,2515.9955 C973.230356,2515.9615 972.918271,2515.73562 972.771255,2515.404 L965.696558,2499.44922 L964.76896,2500.02097 C964.223307,2500.35722 963.611626,2500.52547 962.999822,2500.52547 C962.388018,2500.52547 961.776337,2500.35735 961.230684,2500.02097 L960.335358,2499.4691 L953.269563,2515.404 C953.122547,2515.73537 952.810339,2515.9615 952.452506,2515.9955 C952.421347,2515.99837 952.38994,2515.99987 952.358905,2515.99987 C952.034827,2515.99987 951.728554,2515.84012 951.540858,2515.56825 L948.333955,2510.91937 L942.767131,2511.59224 C942.410039,2511.63549 942.058016,2511.48112 941.845097,2511.18837 C941.632053,2510.89562 941.591374,2510.50987 941.73839,2510.17824 L948.656921,2494.57646 L947.634609,2494.32634 C946.391217,2494.02209 945.431842,2493.05234 945.131133,2491.79521 L944.538742,2489.32033 C944.460473,2488.99358 944.269315,2488.7047 944.000383,2488.50708 L941.966271,2487.01133 C940.929369,2486.24882 940.408939,2484.97957 940.608382,2483.69907 L940.9996,2481.18607 C941.051284,2480.85456 940.984392,2480.51406 940.811533,2480.22731 L939.499023,2478.05131 C938.83368,2476.94818 938.83368,2475.57768 939.498899,2474.47443 L940.811657,2472.29805 C940.984515,2472.01155 941.051284,2471.67105 940.999724,2471.33942 L940.608505,2468.82554 C940.40931,2467.54492 940.929616,2466.27592 941.966518,2465.51354 L944.001125,2464.01754 C944.270181,2463.81991 944.461215,2463.53104 944.539483,2463.20428 L945.131999,2460.72928 C945.432955,2459.47228 946.392454,2458.5024 947.635722,2458.1984 L950.083804,2457.59953 C950.407141,2457.5204 950.692765,2457.32715 950.888498,2457.05527 L952.368055,2454.9989 C953.1223,2453.95064 954.377933,2453.42452 955.644323,2453.62602 L958.130118,2454.02152 C958.4584,2454.07352 958.79509,2454.00627 959.078489,2453.83139 L961.230932,2452.50452 C962.322238,2451.83189 963.677901,2451.83177 964.769208,2452.50452 L966.921898,2453.83177 C967.205296,2454.00652 967.542234,2454.07402 967.870145,2454.02189 L970.356681,2453.62639 C971.623072,2453.42464 972.878581,2453.95102 973.632826,2454.99927 L975.112631,2457.05615 C975.308116,2457.32802 975.593864,2457.52128 975.917076,2457.6004 L978.365282,2458.1994 C979.608674,2458.50365 980.56805,2459.4734 980.868759,2460.73053 L981.46115,2463.20541 C981.539419,2463.53216 981.730577,2463.82079 981.999508,2464.01866 L984.033621,2465.51441 C985.070523,2466.27704 985.590952,2467.54617 985.39151,2468.82679 L985.000292,2471.33967 C984.948607,2471.67117 985.0155,2472.01167 985.188358,2472.29843 L986.500869,2474.4743 C987.166336,2475.57743 987.166336,2476.94793 986.501116,2478.05131 Z M952.169602,2512.95349 L958.57537,2498.50672 C958.428849,2498.48222 958.27837,2498.4801 958.1295,2498.50372 L955.642963,2498.89922 C955.306768,2498.95272 954.971809,2498.95347 954.646494,2498.90835 L951.340427,2506.36386 C951.174616,2506.73811 950.8106,2506.96011 950.429521,2506.96011 C950.293262,2506.96011 950.154654,2506.93173 950.022105,2506.87161 C949.519357,2506.64373 949.294567,2506.04711 949.519852,2505.53873 L952.837665,2498.05659 C952.665425,2497.89884 952.507405,2497.72172 952.366818,2497.52634 L950.887014,2495.46946 C950.801821,2495.35084 950.698453,2495.24821 950.583214,2495.16259 L944.279825,2509.37799 L948.691418,2508.84474 C949.057165,2508.80024 949.417472,2508.96374 949.628166,2509.26924 L952.169602,2512.95349 Z M981.761241,2509.37774 L975.447342,2495.13971 C975.318997,2495.22959 975.204747,2495.34071 975.111518,2495.47034 L973.631961,2497.52672 C973.499535,2497.71072 973.351035,2497.87759 973.190418,2498.02834 L976.520844,2505.53898 C976.746252,2506.04723 976.521338,2506.64411 976.01859,2506.87186 C975.886165,2506.93198 975.747557,2506.96036 975.611174,2506.96036 C975.230095,2506.96036 974.866326,2506.73848 974.700269,2506.36411 L971.391728,2498.9026 C971.054049,2498.95347 970.705489,2498.95522 970.355692,2498.8996 L967.870021,2498.5041 C967.734381,2498.4826 967.597256,2498.4826 967.462852,2498.5011 L973.871341,2512.95349 L976.412776,2509.26924 C976.62347,2508.96374 976.983406,2508.80036 977.349524,2508.84474 L981.761241,2509.37774 Z M984.797387,2477.00106 C985.07213,2476.54568 985.07213,2475.97981 984.797387,2475.52443 L983.484877,2473.3483 C983.066085,2472.65393 982.904355,2471.82917 983.029362,2471.0258 L983.420581,2468.51279 C983.502929,2467.98417 983.288155,2467.46017 982.86009,2467.14542 L980.825977,2465.64966 C980.174482,2465.17066 979.711425,2464.47079 979.521998,2463.67929 L978.929606,2461.20441 C978.805341,2460.68541 978.409301,2460.28515 977.896043,2460.15953 L975.447837,2459.56053 C974.665029,2459.36903 973.972978,2458.90078 973.499164,2458.2424 L972.019236,2456.18552 C971.707893,2455.7529 971.189566,2455.5359 970.666787,2455.61877 L968.180127,2456.01427 C967.385697,2456.14077 966.569628,2455.97715 965.882894,2455.55365 L963.73008,2454.22664 C963.279882,2453.94914 962.72001,2453.94914 962.269564,2454.22664 L960.117245,2455.55352 C959.430511,2455.9769 958.614566,2456.14065 957.819765,2456.01402 L955.33397,2455.61852 C954.81082,2455.53515 954.29274,2455.75252 953.981398,2456.18527 L952.501841,2458.24165 C952.02815,2458.90015 951.335975,2459.3684 950.553044,2459.5599 L948.104838,2460.15878 C947.591457,2460.2844 947.19554,2460.68478 947.071275,2461.20366 L946.478759,2463.67866 C946.289332,2464.47004 945.826152,2465.16966 945.174904,2465.64866 L943.140173,2467.14479 C942.712231,2467.45954 942.497333,2467.98342 942.579558,2468.51204 L942.970777,2471.0258 C943.095784,2471.82905 942.93393,2472.6538 942.515262,2473.34805 L941.202504,2475.52443 C940.927885,2475.97968 940.927885,2476.54556 941.202504,2477.00093 L942.515015,2479.17706 C942.933806,2479.87144 943.095536,2480.69619 942.97053,2481.49957 L942.579311,2484.01257 C942.496962,2484.5412 942.711737,2485.0652 943.139802,2485.37995 L945.173791,2486.87583 C945.825286,2487.35483 946.288343,2488.0547 946.47777,2488.8462 L947.070162,2491.32108 C947.194427,2491.84008 947.590467,2492.24033 948.103725,2492.36596 L950.551931,2492.96496 C951.334739,2493.15646 952.02679,2493.62471 952.500604,2494.28309 L953.980532,2496.33997 C954.291875,2496.77259 954.809955,2496.98997 955.332981,2496.90672 L957.819641,2496.51122 C957.994601,2496.48334 958.171045,2496.46959 958.346623,2496.46959 C958.967701,2496.46959 959.581484,2496.64159 960.116874,2496.97172 L962.269688,2498.29872 C962.719886,2498.57622 963.279759,2498.57622 963.730204,2498.29872 L965.882523,2496.97184 C966.569381,2496.54847 967.385326,2496.38497 968.180004,2496.51134 L970.665798,2496.90684 C971.188948,2496.99009 971.707028,2496.77309 972.01837,2496.34022 L973.497927,2494.28384 C973.971742,2493.62534 974.663916,2493.15709 975.446848,2492.96559 L977.895054,2492.36671 C978.408435,2492.24108 978.804352,2491.84071 978.928617,2491.32183 L979.521132,2488.84683 C979.710559,2488.05545 980.17374,2487.35583 980.824988,2486.87683 L982.859719,2485.3807 C983.28766,2485.06595 983.502558,2484.54207 983.420333,2484.01345 L983.029115,2481.49969 C982.904108,2480.69644 983.066085,2479.87169 983.48463,2479.17744 L984.797387,2477.00106 Z M974.911655,2473.64991 C975.12655,2474.34014 974.942838,2475.07502 974.432071,2475.56767 L970.093689,2479.75335 L971.245273,2485.79992 C971.380882,2486.51172 971.115466,2487.21898 970.552607,2487.64556 C969.989747,2488.07213 969.263239,2488.1169 968.656144,2487.76232 L963.499882,2484.75133 L958.34362,2487.76232 C958.071557,2487.9212 957.775442,2487.99988 957.480657,2487.99988 C957.118068,2487.99988 956.757775,2487.88072 956.447278,2487.64543 C955.884418,2487.21898 955.619003,2486.51185 955.75449,2485.79992 L956.906074,2479.75322 L952.567693,2475.56754 C952.057167,2475.07489 951.873455,2474.33989 952.08835,2473.65003 C952.303123,2472.9598 952.865862,2472.47786 953.556716,2472.39237 L959.42474,2471.66645 L961.899775,2466.06839 C962.191176,2465.40943 962.804435,2465 963.500003,2465 C964.195691,2465 964.808829,2465.40943 965.10023,2466.06839 L967.575265,2471.66633 L973.44329,2472.39225 C974.134143,2472.47774 974.696761,2472.95967 974.911655,2473.64991 Z M968.368852,2478.64612 L972.808396,2474.36271 L966.803433,2473.6199 C966.466588,2473.57829 966.174824,2473.35699 966.032689,2473.03583 L963.500003,2467.30726 L960.967316,2473.03583 C960.825181,2473.35699 960.533297,2473.57829 960.196572,2473.6199 L954.191368,2474.36271 L958.630911,2478.64612 C958.88001,2478.88633 958.991567,2479.24418 958.925334,2479.59132 L957.746919,2485.77887 L963.02356,2482.69751 C963.171617,2482.61101 963.335629,2482.56789 963.499882,2482.56789 C963.664135,2482.56789 963.828267,2482.61114 963.976203,2482.69751 L969.252845,2485.77887 L968.074429,2479.59132 C968.008438,2479.24431 968.119874,2478.88633 968.368852,2478.64612 Z" id="Combined-Shape"></path>
        </g>
    </g>
</svg>