<?xml version="1.0" encoding="UTF-8"?>
<svg width="58px" height="58px" viewBox="0 0 58 58" version="1.1" xmlns="http://www.w3.org/2000/svg" xmlns:xlink="http://www.w3.org/1999/xlink">
    <!-- Generator: sketchtool 53.1 (72631) - https://sketchapp.com -->
    <title>AE915D43-E5F6-487F-B4E1-8DB19B72D01A</title>
    <desc>Created with sketchtool.</desc>
    <g id="Page-1" stroke="none" stroke-width="1" fill="none" fill-rule="evenodd">
        <g id="Desktop-1080p" transform="translate(-1324.000000, -2455.000000)" fill="#EC1D24" fill-rule="nonzero">
            <path d="M1377.24313,2455 C1379.86609,2455 1381.99989,2457.16231 1382,2459.82006 L1382,2470.14865 C1382,2470.78239 1381.49294,2471.29631 1380.86741,2471.29631 L1374.75167,2471.29631 L1374.75167,2474.85234 C1374.75167,2475.48608 1374.24461,2476 1373.61908,2476 C1372.99355,2476 1372.48649,2475.48608 1372.48649,2474.85234 L1372.48649,2459.82006 C1372.48649,2458.89481 1372.74563,2458.03017 1373.19345,2457.29532 L1342.13259,2457.29532 C1341.50706,2457.29532 1341,2456.7814 1341,2456.14766 C1341,2455.51392 1341.50706,2455 1342.13259,2455 L1376.33706,2455 C1376.43968,2455 1377.03632,2455 1377.24313,2455 Z M1379.73483,2469.00099 L1379.73471,2469.00099 L1379.73471,2459.82006 C1379.73471,2458.42795 1378.61696,2457.29532 1377.24313,2457.29532 C1375.8693,2457.29532 1374.75155,2458.42783 1374.75155,2459.82006 L1374.75155,2469.00099 L1379.73483,2469.00099 Z M1380.76668,2501.20851 C1382.4194,2502.86145 1382.40981,2505.56045 1380.74547,2507.22536 C1379.94309,2508.02785 1378.87539,2508.47277 1377.73875,2508.4783 C1377.73164,2508.4783 1377.72453,2508.47842 1377.71753,2508.47842 C1376.60605,2508.47842 1375.56533,2508.05697 1374.77581,2507.29049 L1374.77581,2508.25945 C1374.77581,2510.87346 1372.64957,2513 1370.03602,2513 L1336.18061,2513 C1333.56706,2513 1331.44093,2510.87346 1331.44093,2508.25968 L1331.44093,2504.64803 C1331.44093,2504.02478 1331.94617,2503.51936 1332.56945,2503.51936 L1337.53404,2503.51936 L1337.53404,2495.38567 L1328.92647,2503.99442 C1328.70618,2504.21473 1328.41728,2504.325 1328.12849,2504.325 C1327.8397,2504.325 1327.55092,2504.21473 1327.33052,2503.99442 C1326.88983,2503.55356 1326.88983,2502.83888 1327.33052,2502.39813 L1337.53404,2492.1931 L1337.53404,2479.6296 C1337.53404,2479.00634 1338.03928,2478.50092 1338.66256,2478.50092 C1339.28585,2478.50092 1339.79109,2479.00634 1339.79109,2479.6296 L1339.79109,2489.93575 L1341.06124,2488.66543 C1341.27283,2488.4538 1341.55993,2488.33484 1341.85921,2488.33484 C1342.1585,2488.33484 1342.44559,2488.4538 1342.65719,2488.66543 L1348.09023,2494.09932 L1349.41117,2492.77821 C1348.85131,2491.32244 1348.54356,2489.74264 1348.54356,2488.09218 C1348.54356,2480.87306 1354.41593,2475 1361.63396,2475 C1368.85198,2475 1374.72435,2480.87306 1374.72435,2488.09218 C1374.72435,2490.15144 1374.24586,2492.10078 1373.39518,2493.836 L1380.76668,2501.20851 Z M1361.63384,2477.25724 C1355.66024,2477.25724 1350.80038,2482.11765 1350.80049,2488.09229 C1350.80049,2489.09692 1350.93851,2490.06984 1351.19558,2490.99366 L1357.17381,2485.01462 L1354.35082,2485.01462 C1353.72753,2485.01462 1353.2223,2484.5092 1353.2223,2483.88594 C1353.2223,2483.26269 1353.72753,2482.75727 1354.35082,2482.75727 L1359.76693,2482.75727 C1360.39021,2482.75727 1360.89545,2483.26269 1360.89545,2483.88594 L1360.89545,2489.30268 C1360.89545,2489.92594 1360.39021,2490.43136 1359.76693,2490.43136 C1359.14365,2490.43136 1358.63841,2489.92594 1358.63841,2489.30268 L1358.63841,2486.74206 L1352.11668,2493.26467 C1353.95527,2496.63523 1357.53189,2498.92712 1361.63384,2498.92712 C1367.60745,2498.92712 1372.46731,2494.06659 1372.46731,2488.09218 C1372.46731,2482.11776 1367.60745,2477.25724 1361.63384,2477.25724 Z M1336.18049,2510.74231 L1336.18049,2510.74242 L1366.00066,2510.74242 C1365.55433,2510.01973 1365.29612,2509.16928 1365.29612,2508.25923 L1365.29612,2507.3494 C1365.29612,2507.31249 1365.29815,2507.27604 1365.30165,2507.24003 C1365.29815,2507.20403 1365.29612,2507.16757 1365.29612,2507.13066 L1365.29612,2505.77626 L1333.69786,2505.77626 L1333.69786,2508.25923 C1333.69786,2509.62831 1334.81148,2510.7422 1336.18049,2510.74231 Z M1372.51877,2508.25889 L1372.51877,2505.03483 L1367.35195,2499.8673 C1365.62339,2500.71042 1363.6829,2501.18424 1361.63384,2501.18424 C1356.91369,2501.18424 1352.76931,2498.67249 1350.466,2494.91536 L1348.8881,2496.49347 C1348.6765,2496.7051 1348.3894,2496.82406 1348.09012,2496.82406 C1347.79083,2496.82406 1347.50374,2496.7051 1347.29214,2496.49347 L1341.8591,2491.05958 L1339.79109,2493.12787 L1339.79109,2503.51879 L1366.42464,2503.51879 C1367.04792,2503.51879 1367.55316,2504.02421 1367.55316,2504.64747 L1367.55316,2507.13044 C1367.55316,2507.16735 1367.55113,2507.2038 1367.54763,2507.23981 C1367.55113,2507.27581 1367.55316,2507.31227 1367.55316,2507.34918 L1367.55316,2508.259 C1367.55316,2509.6282 1368.6669,2510.7422 1370.03602,2510.7422 C1371.40492,2510.7422 1372.51877,2509.62831 1372.51877,2508.25889 Z M1379.14951,2505.62874 C1379.93395,2504.84442 1379.94343,2503.57737 1379.17073,2502.80445 L1372.19082,2495.8236 C1371.39273,2496.91051 1370.43134,2497.87023 1369.34277,2498.66617 L1376.32561,2505.64996 C1376.69362,2506.01813 1377.18769,2506.22061 1377.71764,2506.22061 C1377.72103,2506.22061 1377.72441,2506.22061 1377.72769,2506.2205 C1378.26554,2506.21802 1378.77055,2506.00775 1379.14951,2505.62874 Z M1368.91974,2487 C1369.51637,2487 1370,2487.48375 1370,2488.08028 C1370,2492.44719 1366.44723,2496 1362.08026,2496 C1361.48363,2496 1361,2495.51625 1361,2494.91972 C1361,2494.32309 1361.48363,2493.83945 1362.08026,2493.83945 C1365.25591,2493.83945 1367.83947,2491.25586 1367.83947,2488.08028 C1367.83947,2487.48375 1368.32311,2487 1368.91974,2487 Z M1352.87257,2474.68121 C1353.49519,2474.68121 1353.99989,2475.2003 1354,2475.84055 C1354,2476.4808 1353.4953,2477 1352.87268,2477 L1325.12732,2477 C1324.5047,2477 1324,2476.4808 1324,2475.84055 C1324,2475.2003 1324.5047,2474.68109 1325.12732,2474.68109 L1326.36725,2474.68109 L1326.36725,2469.57961 C1326.36725,2468.93936 1326.87195,2468.42016 1327.49456,2468.42016 L1332.45453,2468.42016 C1333.07714,2468.42016 1333.58184,2468.93936 1333.58184,2469.57961 L1333.58184,2474.68109 L1335.38521,2474.68109 L1335.38521,2462.15945 C1335.38521,2461.5192 1335.88991,2461 1336.51252,2461 L1341.4726,2461 C1342.09521,2461 1342.59991,2461.5192 1342.59991,2462.15945 L1342.59991,2474.68121 L1344.41218,2474.68121 L1344.41218,2466.9131 C1344.41218,2466.27285 1344.91688,2465.75365 1345.5395,2465.75365 L1350.71636,2465.75365 C1351.33897,2465.75365 1351.84367,2466.27285 1351.84367,2466.9131 L1351.84367,2474.68121 L1352.87257,2474.68121 Z M1331.32732,2474.68121 L1331.32732,2470.73918 L1328.62188,2470.73918 L1328.62188,2474.68121 L1331.32732,2474.68121 Z M1340.34551,2474.68121 L1340.34551,2463.31891 L1337.64006,2463.31891 L1337.64006,2474.68121 L1340.34551,2474.68121 Z M1349.58915,2474.68121 L1349.58915,2468.07255 L1346.66693,2468.07255 L1346.66693,2474.68121 L1349.58915,2474.68121 Z M1361.87132,2461 C1362.49469,2461 1362.99989,2461.4478 1363,2462 C1363,2462.5522 1362.49469,2463 1361.87132,2463 L1353.12868,2463 C1352.50531,2463 1352,2462.5522 1352,2462 C1352,2461.4478 1352.50531,2461 1353.12868,2461 L1361.87132,2461 Z M1368.707,2461.293 C1368.893,2461.4791 1369,2461.7371 1369,2462 C1369,2462.263 1368.893,2462.521 1368.707,2462.7069 C1368.521,2462.893 1368.263,2463 1368,2463 C1367.737,2463 1367.479,2462.8929 1367.293,2462.7069 C1367.107,2462.521 1367,2462.263 1367,2462 C1367,2461.737 1367.107,2461.4791 1367.293,2461.293 C1367.479,2461.1069 1367.737,2461 1368,2461 C1368.263,2461 1368.521,2461.107 1368.707,2461.293 Z M1357.90101,2466 C1358.50798,2466 1359,2466.4478 1359,2467 C1359,2467.5522 1358.50798,2468 1357.90101,2468 L1356.09899,2468 C1355.49202,2468 1355,2467.5522 1355,2467 C1355,2466.4478 1355.49202,2466 1356.09899,2466 L1357.90101,2466 Z M1367.84832,2466 C1368.48439,2466 1369,2466.4478 1369,2467 C1369,2467.5522 1368.48439,2468 1367.84832,2468 L1362.15168,2468 C1361.51561,2468 1361,2467.5522 1361,2467 C1361,2466.4478 1361.51561,2466 1362.15168,2466 L1367.84832,2466 Z M1325.707,2505.2931 C1325.893,2505.4789 1326,2505.7369 1326,2506 C1326,2506.263 1325.893,2506.521 1325.707,2506.707 C1325.52,2506.8931 1325.263,2507 1325,2507 C1324.736,2507 1324.479,2506.893 1324.293,2506.707 C1324.106,2506.521 1324,2506.263 1324,2506 C1324,2505.737 1324.106,2505.479 1324.293,2505.2931 C1324.479,2505.107 1324.736,2505 1325,2505 C1325.263,2505 1325.521,2505.1071 1325.707,2505.2931 Z" id="Combined-Shape"></path>
        </g>
    </g>
</svg>