<?xml version="1.0" encoding="UTF-8"?>
<svg width="16px" height="16px" viewBox="0 0 16 16" version="1.1" xmlns="http://www.w3.org/2000/svg" xmlns:xlink="http://www.w3.org/1999/xlink">
    <!-- Generator: Sketch 52.6 (67491) - http://www.bohemiancoding.com/sketch -->
    <title>icons/16px/phone</title>
    <desc>Created with Sketch.</desc>
    <defs>
        <path d="M2,14 L8,14 L8,2 L2,2 L2,14 Z M4,11 L6,11 L6,13 L4,13 L4,11 Z M2,-1.77635684e-14 C0.9,-1.77635684e-14 0,0.9 0,2 L0,14 C0,15.1 0.9,16 2,16 L8,16 C9.1,16 10,15.1 10,14 L10,2 C10,0.9 9.1,-1.77635684e-14 8,-1.77635684e-14 L2,-1.77635684e-14 Z M11,6.8 C11.5,7.5 11.5,8.4 11,9.1 L12,10.1 C13.2,8.9 13.2,7.1 12,5.8 L11,6.8 Z M13.1,4.7 C14.9,6.5 14.9,9.3 13.1,11.2 L14.1,12.2 C16.6,9.9 16.6,6.1 14.1,3.7 L13.1,4.7 Z" id="path-1"></path>
    </defs>
    <g id="icons/16px/phone" stroke="none" stroke-width="1" fill="none" fill-rule="evenodd">
        <g id="color/primary/normal">
            <mask id="mask-2" fill="white">
                <use xlink:href="#path-1"></use>
            </mask>
            <use id="Mask" fill="#000000" xlink:href="#path-1"></use>
            <g mask="url(#mask-2)" fill="#00ACE8" fill-rule="nonzero" id="Rectangle">
                <rect x="0" y="0" width="16" height="16"></rect>
            </g>
        </g>
    </g>
</svg>