<?xml version="1.0" encoding="UTF-8"?>
<svg width="50px" height="63px" viewBox="0 0 50 63" version="1.1" xmlns="http://www.w3.org/2000/svg" xmlns:xlink="http://www.w3.org/1999/xlink">
    <!-- Generator: sketchtool 53.1 (72631) - https://sketchapp.com -->
    <title>FFCC6E00-F215-4056-B136-C55625D68851</title>
    <desc>Created with sketchtool.</desc>
    <g id="Page-1" stroke="none" stroke-width="1" fill="none" fill-rule="evenodd">
        <g id="Desktop-1080p" transform="translate(-535.000000, -2104.000000)" fill="#EC1D24" fill-rule="nonzero">
            <g id="timer-copy" transform="translate(535.000000, 2104.000000)">
                <path d="M46.4618517,25.2316199 C48.706938,28.975726 49.9995197,33.3527137 50,38.025594 C50,51.7966908 38.7851365,63 25,63 C11.2148636,63 0,51.7966908 0,38.025594 C0,33.3575484 1.28969973,28.9853957 3.53046285,25.243707 L2.70764889,24.5213808 C1.82335203,23.7449042 1.29498332,22.6701175 1.22053147,21.4952496 C1.14511877,20.3213486 1.53226891,19.1885437 2.30945101,18.306184 C3.90848659,16.4906987 6.68818574,16.3122928 8.50577369,17.908276 L9.29976755,18.6059446 C12.7874805,15.7867448 17.0451707,13.8842322 21.704421,13.2687561 L21.704421,10.5356167 L18.9175168,10.5356167 C18.2388034,10.5356167 17.6883394,9.98154313 17.6883394,9.29837917 L17.6883394,4.08302889 C17.6883394,1.83144032 19.5179357,0 21.7673449,0 L28.3527388,0 C30.6016678,0 32.431264,1.83144032 32.4317444,4.08302889 L32.4317444,9.29837917 C32.4317444,9.98154313 31.8808001,10.5356167 31.2020865,10.5356167 L28.4853113,10.5356167 L28.4853113,13.2953478 C33.0653064,13.9364486 37.2509462,15.8210723 40.6882242,18.5967583 L41.472131,17.908276 C43.289719,16.3118092 46.069418,16.4902152 47.6689339,18.306184 C48.446116,19.1885437 48.8327857,20.3208651 48.7578535,21.494766 C48.6829211,22.6701175 48.1545527,23.7449042 47.2702557,24.5213808 L46.4618517,25.2316199 Z M43.0884585,19.7735602 L42.5432782,20.2522102 C43.4602378,21.1553598 44.3080293,22.1281311 45.0775261,23.1627886 L45.6539282,22.65658 C46.0401176,22.3171737 46.2711587,21.8481934 46.3038215,21.3366666 C46.3364843,20.8261067 46.1678868,20.3329522 45.8287702,19.9480983 C45.1221972,19.1455136 43.8930198,19.067189 43.0884585,19.7735602 Z M29.9724287,4.08302889 C29.9724287,3.2451498 29.323496,2.55473355 28.4982804,2.48124386 L28.4982804,8.06065815 L29.9724287,8.06065815 L29.9724287,4.08302889 Z M26.0394451,8.06065815 L26.0394451,2.47495859 L24.1632563,2.47495859 L24.1632563,8.06065815 L26.0394451,8.06065815 Z M20.1471746,4.08302889 L20.1471746,8.06065815 L21.704421,8.06065815 L21.704421,2.47640895 C20.8402982,2.50880246 20.1471746,3.21710775 20.1471746,4.08302889 Z M24.1632563,10.5356167 L24.1632563,13.0666594 C24.4408899,13.0574733 24.7194843,13.0511879 24.9995197,13.0511879 C25.3434396,13.0511879 25.6854382,13.0603742 26.026476,13.0739117 L26.026476,10.5356167 L24.1632563,10.5356167 Z M4.32397641,22.65658 L4.91334758,23.1739087 C5.68236402,22.1387679 6.5291948,21.1655129 7.44567413,20.2618799 L6.88944605,19.7730768 C6.08536518,19.067189 4.85570737,19.1455136 4.14913444,19.9476147 C3.81001793,20.3329522 3.64142029,20.8261067 3.67408307,21.3366666 C3.70674586,21.8481934 3.9373067,22.3166903 4.32397641,22.65658 Z M24.9995197,60.5250414 C37.4291505,60.5250414 47.5406844,50.4318133 47.5406844,38.025594 C47.5406844,25.6198582 37.4291505,15.52663 24.9995197,15.52663 C12.5703691,15.52663 2.45835495,25.6198582 2.45835495,38.025594 C2.45835495,50.4318133 12.5703691,60.5250414 24.9995197,60.5250414 Z M24.9997571,18 C36.0281918,18 45,26.9723194 45,37.9999999 C45,49.0281701 36.0281918,58 24.9997571,58 C13.9718083,58 5,49.0281701 5,37.9999999 C5,26.9723194 13.9718083,18 24.9997571,18 Z M40.5199262,39.2530898 C39.8334123,39.2530898 39.2766218,38.6921364 39.2766218,37.9999999 C39.2766218,37.3078636 39.8334123,36.74691 40.5199262,36.74691 L42.467721,36.74691 C42.1912692,32.860863 40.6384749,29.320884 38.2262022,26.5454856 L36.8502594,27.9209475 C36.6078174,28.1632442 36.2910396,28.2841479 35.9742618,28.2841479 C35.6545688,28.2841479 35.3348759,28.1607968 35.0914624,27.9136053 C34.6080361,27.4226486 34.6109513,26.6291882 35.0987501,26.1421473 L36.4596315,24.78137 C33.6795661,22.3735773 30.1347642,20.8248365 26.2435472,20.5507231 L26.2435472,22.4881176 C26.2435472,23.1797645 25.6867569,23.7407181 25.0002429,23.7407181 C24.3132433,23.7407181 23.7564528,23.1797645 23.7564528,22.4881176 L23.7564528,20.5507231 C19.8652358,20.8248365 16.3204339,22.3735773 13.5403686,24.78137 L14.9017357,26.1421473 C15.3890489,26.6291882 15.3924498,27.4226486 14.9085378,27.9136053 C14.6656099,28.1607968 14.3454312,28.2841479 14.0257382,28.2841479 C13.7089604,28.2841479 13.3921826,28.1632442 13.1497406,27.9209475 L11.7737978,26.5454856 C9.36152507,29.320884 7.80921662,32.860863 7.53227903,36.7473995 L9.48007382,36.7473995 C10.1665878,36.7473995 10.7233782,37.3083531 10.7233782,37.9999999 C10.7233782,38.6921364 10.1665878,39.2530898 9.48007382,39.2530898 L7.53227903,39.2530898 C7.80921662,43.1396265 9.36152507,46.679116 11.7737978,49.4550038 L13.1497406,48.0795418 C13.6375397,47.5920115 14.4251115,47.595438 14.9085378,48.0863947 C15.3924498,48.5778409 15.3890489,49.3708118 14.9017357,49.8583421 L13.5403686,51.21863 C16.3204339,53.6269121 19.8652358,55.1756528 23.7564528,55.4497662 L23.7564528,53.5123718 C23.7564528,52.8202355 24.3132433,52.2592819 25.0002429,52.2592819 C25.6867569,52.2592819 26.2435472,52.8202355 26.2435472,53.5123718 L26.2435472,55.4497662 C30.13525,55.1756528 33.6795661,53.6269121 36.4596315,51.21863 L35.0987501,49.8583421 C34.6109513,49.3708118 34.6075502,48.5778409 35.0914624,48.0863947 C35.5748886,47.595438 36.3624604,47.5920115 36.8502594,48.0795418 L38.2262022,49.4550038 C40.6384749,46.679116 42.1912692,43.1396265 42.467721,39.2530898 L40.5199262,39.2530898 Z M31.2427997,24.101338 C31.8775506,24.3726369 32.170738,25.1048525 31.8980736,25.7364248 L29.0326549,32.3715811 C30.7336309,33.5224139 31.852141,35.4555407 31.852141,37.6429495 C31.852141,40.9320851 29.3590703,43.6620919 26.0528931,43.9936794 C26.0103809,43.9980552 25.9678687,44 25.9258452,44 C25.291583,44 24.7477203,43.5215803 24.6827304,42.880284 C24.6138313,42.1962022 25.1146933,41.5860225 25.8017291,41.5174685 C27.8252113,41.3142373 29.3507633,39.64852 29.3507633,37.6424633 C29.3507633,36.4838513 28.8332874,35.4419272 28.0148058,34.727701 L26.5439821,38.1340104 C26.3402168,38.6051371 25.8789352,38.8876186 25.3941986,38.8876186 C25.229525,38.8876186 25.0619195,38.8545572 24.9011551,38.7860031 C24.2664042,38.5147042 23.9732168,37.7829747 24.245881,37.1514025 L25.7098637,33.7611375 C25.6057822,33.7528721 25.501212,33.747524 25.3946873,33.747524 C23.4640478,33.747524 21.783595,35.1613903 21.4864984,37.0356871 C21.3785077,37.714907 20.7369159,38.1782545 20.0562323,38.0712908 C19.3740829,37.964327 18.9079147,37.3269202 19.0154168,36.6481866 C19.5109037,33.5253311 22.1935688,31.2586719 25.3946873,31.2586719 C25.8530369,31.2586719 26.2996592,31.3068055 26.7306448,31.3972385 L29.5999727,24.7538169 C29.8721484,24.1222445 30.6080488,23.830039 31.2427997,24.101338 Z M21.9367905,40.9943582 L21.943796,41.0250894 C22.12555,41.7985863 21.851946,42.6451423 21.3327599,42.9159243 C21.2237853,42.9727478 21.1128648,43 21.0035009,43 C20.5921219,43 20.2068189,42.6167305 20.0632059,42.0055868 L20.0562004,41.9748555 C19.8744464,41.2007786 20.1480505,40.3542228 20.6676258,40.0834408 C21.1868118,39.8132386 21.7550364,40.2208611 21.9367905,40.9943582 Z" id="Combined-Shape"></path>
            </g>
        </g>
    </g>
</svg>